<svg xmlns="http://www.w3.org/2000/svg" xmlns:xlink="http://www.w3.org/1999/xlink" width="222.249" height="54.788" viewBox="0 0 222.249 54.788">
  <defs>
    <clipPath id="clip-path">
      <rect id="Rectángulo_5" data-name="Rectángulo 5" width="222.249" height="54.788" transform="translate(0 0)" fill="none"/>
    </clipPath>
  </defs>
  <g id="Logos_Inicio" data-name="Logos Inicio" transform="translate(0 0)">
    <path id="Trazado_1" data-name="Trazado 1" d="M97.882,13.31h1.939V6.088h2.635V4.567h-7.2V6.088h2.623Z" fill="#fff"/>
    <g id="Grupo_2" data-name="Grupo 2">
      <g id="Grupo_1" data-name="Grupo 1" clip-path="url(#clip-path)">
        <path id="Trazado_2" data-name="Trazado 2" d="M109.636,11h3.012l.642,2.306h1.976l-2.534-8.236a.686.686,0,0,0-.671-.507h-1.838a.682.682,0,0,0-.424.14.67.67,0,0,0-.247.367L107,13.31h1.989Zm1.145-4.118c.042-.144.078-.289.108-.437s.057-.289.082-.425h.342c.025.136.055.277.089.425s.067.293.1.437l.74,2.661h-2.2Z" fill="#fff"/>
        <path id="Trazado_3" data-name="Trazado 3" d="M126.961,13.209l-.089-1.457h-3.053a.716.716,0,0,1-.507-.165.624.624,0,0,1-.177-.481V4.568H121.2v6.956a1.826,1.826,0,0,0,.488,1.311,1.892,1.892,0,0,0,1.438.513q.975,0,1.957-.019t1.882-.12" fill="#fff"/>
        <path id="Trazado_4" data-name="Trazado 4" d="M134.88,13.348q.709,0,1.432-.006t1.419-.038q.7-.031,1.3-.083l-.089-1.406H135.59a.631.631,0,0,1-.476-.165.67.67,0,0,1-.158-.481V9.445h3.522V8.077h-3.522V6.709a.673.673,0,0,1,.158-.482.635.635,0,0,1,.476-.165h3.357l.089-1.406q-.609-.063-1.3-.089t-1.419-.031q-.723-.006-1.432-.007a1.89,1.89,0,0,0-1.349.482,1.669,1.669,0,0,0-.514,1.28v5.3a1.673,1.673,0,0,0,.514,1.273,1.877,1.877,0,0,0,1.349.488" fill="#fff"/>
        <path id="Trazado_5" data-name="Trazado 5" d="M147.309,8.191q0-.342-.025-.691t-.064-.69h.14c.067.22.15.448.247.684s.2.452.3.646l2.42,4.587a1.347,1.347,0,0,0,.3.437.7.7,0,0,0,.481.146h1.064a.616.616,0,0,0,.7-.7V4.567h-1.824l.012,4.954c0,.237.007.476.019.716s.032.488.058.741h-.153c-.1-.253-.207-.5-.316-.734s-.216-.452-.317-.647L148.006,5.15a1.584,1.584,0,0,0-.311-.437.658.658,0,0,0-.462-.146h-1.052a.622.622,0,0,0-.709.7V13.31h1.837Z" fill="#fff"/>
        <path id="Trazado_6" data-name="Trazado 6" d="M161.652,13.31h1.939V6.088h2.635V4.567h-7.2V6.088h2.623Z" fill="#fff"/>
        <path id="Trazado_7" data-name="Trazado 7" d="M172.828,12.531a2.449,2.449,0,0,0,1.165.735,7.1,7.1,0,0,0,3.523,0,2.412,2.412,0,0,0,1.159-.735,3.242,3.242,0,0,0,.64-1.394,10.011,10.011,0,0,0,.2-2.2,10.011,10.011,0,0,0-.2-2.2,3.242,3.242,0,0,0-.64-1.394,2.412,2.412,0,0,0-1.159-.735,7.1,7.1,0,0,0-3.523,0,2.449,2.449,0,0,0-1.165.735,3.189,3.189,0,0,0-.647,1.394,10.018,10.018,0,0,0-.2,2.2,10.018,10.018,0,0,0,.2,2.2,3.189,3.189,0,0,0,.647,1.394m1.349-5.423a1.52,1.52,0,0,1,.532-.919,1.782,1.782,0,0,1,1.045-.266,1.756,1.756,0,0,1,1.033.266,1.515,1.515,0,0,1,.532.919,8.147,8.147,0,0,1,.159,1.831,8.157,8.157,0,0,1-.159,1.824,1.514,1.514,0,0,1-.532.925,1.749,1.749,0,0,1-1.033.266,1.775,1.775,0,0,1-1.045-.266,1.519,1.519,0,0,1-.532-.925,8.167,8.167,0,0,1-.158-1.824,8.157,8.157,0,0,1,.158-1.831" fill="#fff"/>
        <path id="Trazado_8" data-name="Trazado 8" d="M105.124,32.429a8.539,8.539,0,0,0,8.538,8.538H114V32.429Z" fill="#fff"/>
        <path id="Trazado_9" data-name="Trazado 9" d="M135.085,32.429h-8.748v8.538H152.3V35.156H135.085Z" fill="#fff"/>
        <path id="Trazado_10" data-name="Trazado 10" d="M175.551,32.875a4.221,4.221,0,0,1-1.25,1.093,8.615,8.615,0,0,1-2.218.8,14.393,14.393,0,0,1-3.4.359,12.228,12.228,0,0,1-3.827-.531,5.594,5.594,0,0,1-2.437-1.437,7.25,7.25,0,0,1-.585-.727h-9.881c.015.076.03.152.047.227a9.7,9.7,0,0,0,1.373,3.062,10.222,10.222,0,0,0,2.782,2.859,15.2,15.2,0,0,0,4.8,2.015,28.272,28.272,0,0,0,7.169.812h1.219a30.883,30.883,0,0,0,7.045-.719A15.916,15.916,0,0,0,181.1,38.92a10.193,10.193,0,0,0,2.734-2.437,7.782,7.782,0,0,0,1.375-2.5,8.3,8.3,0,0,0,.285-1.555h-9.617q-.132.195-.322.446" fill="#fff"/>
        <rect id="Rectángulo_1" data-name="Rectángulo 1" width="8.841" height="19.06" transform="translate(213.408 32.43)" fill="#fff"/>
        <rect id="Rectángulo_2" data-name="Rectángulo 2" width="8.873" height="8.538" transform="translate(190.008 32.429)" fill="#fff"/>
        <path id="Trazado_11" data-name="Trazado 11" d="M82.56,23.957h20.306V31.03h8.872V23.957h10.029V17.615H82.56Z" fill="#fff"/>
        <path id="Trazado_12" data-name="Trazado 12" d="M149.446,26.207H132.825V23.3H149.79V17.616H124.078V31.031h25.368Z" fill="#fff"/>
        <path id="Trazado_13" data-name="Trazado 13" d="M184.89,23.411a8.183,8.183,0,0,0-1.172-1.8,9.217,9.217,0,0,0-1.983-1.672,14.033,14.033,0,0,0-2.906-1.421,21.988,21.988,0,0,0-4.061-.969,34.936,34.936,0,0,0-5.327-.375h-1.218a29.456,29.456,0,0,0-7.264.8,15.277,15.277,0,0,0-4.811,1.968,10.178,10.178,0,0,0-4.062,5.827,13.88,13.88,0,0,0-.3,2.936v.906a14.059,14.059,0,0,0,.071,1.419h9.411a5.47,5.47,0,0,1-.3-1.793v-.375q0-5.436,7.78-5.436,6.591,0,7.654,3.561h9.216v-.406a8.017,8.017,0,0,0-.14-1.468,7.133,7.133,0,0,0-.594-1.7" fill="#fff"/>
        <path id="Trazado_14" data-name="Trazado 14" d="M219.99,13.455h-8.841V25.832H196.621V4.242h-8.872V31.03H219.99Z" fill="#fff"/>
        <path id="Trazado_15" data-name="Trazado 15" d="M82.472,3.3V15.624l6.163-6.163Z" fill="#fff"/>
        <path id="Trazado_16" data-name="Trazado 16" d="M5.04,53.212V40.759H0V38.53H12.746v2.229H7.706V53.212Z" fill="#fff"/>
        <rect id="Rectángulo_3" data-name="Rectángulo 3" width="2.666" height="14.682" transform="translate(14.432 38.53)" fill="#fff"/>
        <path id="Trazado_17" data-name="Trazado 17" d="M27.114,53.42a7.839,7.839,0,0,1-3.926-.927,6.217,6.217,0,0,1-2.509-2.624,9.6,9.6,0,0,1,0-8.007,6.231,6.231,0,0,1,2.509-2.613,7.839,7.839,0,0,1,3.926-.927,8.481,8.481,0,0,1,2.8.458,5.623,5.623,0,0,1,2.176,1.312l-.874,2.125A6.525,6.525,0,0,0,29.3,41.06a5.992,5.992,0,0,0-2.1-.364A4.252,4.252,0,0,0,23.8,42.039a5.651,5.651,0,0,0-1.167,3.822A5.694,5.694,0,0,0,23.8,49.693,4.235,4.235,0,0,0,27.2,51.046a5.947,5.947,0,0,0,2.1-.365,6.474,6.474,0,0,0,1.917-1.155l.874,2.124a5.859,5.859,0,0,1-2.176,1.3,8.334,8.334,0,0,1-2.8.468" fill="#fff"/>
        <path id="Trazado_18" data-name="Trazado 18" d="M17.554,16.918a.311.311,0,0,0,.353.058.245.245,0,0,0,.138.139.283.283,0,0,0,.095.016.375.375,0,0,0,.227-.091.684.684,0,0,0,.547.165c.135,0,.272-.012.389-.021l.164-.011a.814.814,0,0,0,.663-.277c.149.056.544.15.966-.432a.838.838,0,0,0,.63-.929.708.708,0,0,0,.213-.789c.024-.086.092-.381-.053-.521-.028-.063-.163-.34-.4-.389a.5.5,0,0,0-.449.188.468.468,0,0,0-.11.158.494.494,0,0,0-.211.271.467.467,0,0,0-.2.231.987.987,0,0,0-.665.14.923.923,0,0,0-.56-.192h0a.967.967,0,0,0-.732.347,1.531,1.531,0,0,0-.367,1.146.268.268,0,0,0-.163.048.365.365,0,0,0-.148.285h0a.384.384,0,0,0-.291.1.26.26,0,0,0-.028.361m3.032-2.1a.755.755,0,0,1,.4.425l.1-.036a.858.858,0,0,0-.46-.492h0a.311.311,0,0,1,.2-.182c.11-.02.3.037.61.426l.088-.069c-.253-.32-.477-.475-.67-.469a.346.346,0,0,1,.171-.161.63.63,0,0,1,.545.149l.062-.092a.857.857,0,0,0-.539-.184l.027-.029a.4.4,0,0,1,.347-.156c.2.04.324.329.325.332l0,.013.01.008c.1.089.052.344.024.434l0,.021.009.019a.606.606,0,0,1-.2.7l-.027.021.006.033a.728.728,0,0,1-.562.838l-.021.005-.011.017c-.331.465-.665.464-.833.424a1.623,1.623,0,0,0,.022-1.554,1.312,1.312,0,0,0-.263-.354.791.791,0,0,1,.643-.083m-2.924,1.816a.278.278,0,0,1,.2-.064.1.1,0,0,0,.092-.024.1.1,0,0,0,.032-.081.262.262,0,0,1,.1-.2.165.165,0,0,1,.19,0l.1.081-.013-.129a.1.1,0,0,1,.033-.086.236.236,0,0,1,.2-.045c.046.005.2.029.23.137l.039.132.064-.123a.294.294,0,0,1,.3-.161.219.219,0,0,1,.187.2l.109-.018a.329.329,0,0,0-.28-.29.364.364,0,0,0-.081,0c.032-.169.144-.586.479-.676a.819.819,0,0,1,.154.253,1.258,1.258,0,0,1-.146,1.2l.086.07a1.356,1.356,0,0,0,.163-1.307.758.758,0,0,0-.616-.515.723.723,0,0,0-.613.276,1.317,1.317,0,0,0-.3.7c0,.009,0,.038,0,.061a.286.286,0,0,0-.04.028.234.234,0,0,0-.029.035,1.405,1.405,0,0,1,.342-1.027.851.851,0,0,1,.649-.312h0a.935.935,0,0,1,.819.563,1.509,1.509,0,0,1-.03,1.465.756.756,0,0,1-.613.292c-.044,0-.1.007-.171.012-.266.021-.756.063-.849-.107l-.018-.028-.03-.082c-.079.092-.2.195-.314.153A.122.122,0,0,1,18,16.893l.013-.123-.1.074a.211.211,0,0,1-.279,0c-.051-.055-.04-.135.025-.21m.816-.657a1.2,1.2,0,0,1,.276-.652.617.617,0,0,1,.518-.237.569.569,0,0,1,.275.108,1.007,1.007,0,0,0-.5.787.418.418,0,0,0-.165.119.4.4,0,0,0-.271-.126.351.351,0,0,0-.133,0" fill="#fff"/>
        <path id="Trazado_19" data-name="Trazado 19" d="M10.988,15.535a.837.837,0,0,0,.63.928.952.952,0,0,0,.774.469.712.712,0,0,0,.278-.054,1.123,1.123,0,0,0,.3.044.976.976,0,0,0,.363-.07.239.239,0,0,0,.191.057.854.854,0,0,0,.344-.058.258.258,0,0,0,.2.062.91.91,0,0,0,.5-.109.247.247,0,0,0,.133.039,4.637,4.637,0,0,0,.816-.01.125.125,0,0,0,.124-.084.137.137,0,0,0-.064-.148l-.033-.021a.112.112,0,0,1-.045-.033l-.007-.012a.142.142,0,0,0-.028-.045l-.017-.011a1.039,1.039,0,0,0-.3-.056c-.048-.005-.093-.009-.133-.016a.294.294,0,0,0-.271-.184.083.083,0,0,1-.031,0L14.7,16.2l-.011-.018a.275.275,0,0,0-.159-.093,1.49,1.49,0,0,0-.37-1.109.97.97,0,0,0-.713-.346h-.021a.935.935,0,0,0-.561.192,1,1,0,0,0-.663-.141.477.477,0,0,0-.2-.23.487.487,0,0,0-.211-.27.509.509,0,0,0-.109-.159.5.5,0,0,0-.448-.187c-.239.047-.375.325-.4.388-.144.141-.078.435-.055.522a.708.708,0,0,0,.215.788m3.611.712.007.013a.174.174,0,0,0,.05.052.172.172,0,0,0,.092.022c.077.005.16.056.165.123V16.5l.042.009a1.467,1.467,0,0,0,.184.023,1.14,1.14,0,0,1,.25.042l0,.008.014.024a.221.221,0,0,0,.084.071l.024.015a.144.144,0,0,1,.024.024s-.008.005-.029.007a4.761,4.761,0,0,1-.8.01c-.055,0-.073-.015-.076-.022l-.024-.084-.065.057a.728.728,0,0,1-.475.119c-.052,0-.113-.011-.118-.038l-.018-.082-.069.046a.646.646,0,0,1-.339.07c-.062,0-.1-.01-.111-.032L13.4,16.7l-.059.026a.8.8,0,0,1-.215.061,1.231,1.231,0,0,1-.233-1.19.936.936,0,0,1,.182-.322c.349.1.459.567.485.728l-.077,0,0,.111L14,16.1a.229.229,0,0,1,.117.013.232.232,0,0,0,.154.071c.028,0,.06,0,.094,0,.091,0,.181,0,.231.061m-1.432-1.052a.577.577,0,0,1,.276-.108.568.568,0,0,1,.456.178,1.112,1.112,0,0,1,.335.8.232.232,0,0,1-.045-.033A.3.3,0,0,0,14,15.989L13.668,16c-.024-.157-.13-.657-.5-.808m.26-.452h0a.86.86,0,0,1,.648.309,1.4,1.4,0,0,1,.34,1.024h-.073a1.232,1.232,0,0,0-.368-.891.681.681,0,0,0-.547-.207.791.791,0,0,0-.646.591,1.376,1.376,0,0,0,.2,1.24,1.2,1.2,0,0,1-.351-.042,1.505,1.505,0,0,1-.026-1.46.933.933,0,0,1,.821-.563m-2.542-.009c-.027-.091-.078-.346.025-.435l.012-.008,0-.013s.123-.292.326-.333a.4.4,0,0,1,.349.158.189.189,0,0,1,.026.029.829.829,0,0,0-.538.184l.062.091a.621.621,0,0,1,.542-.149.33.33,0,0,1,.172.162c-.193-.007-.417.149-.669.468l.087.068c.306-.387.5-.444.611-.424a.3.3,0,0,1,.2.18l0,0a.864.864,0,0,0-.46.491l.1.036a.761.761,0,0,1,.4-.423.793.793,0,0,1,.644.082,1.331,1.331,0,0,0-.264.355,1.632,1.632,0,0,0,.021,1.553c-.169.038-.5.037-.832-.425l-.012-.016-.019-.005a.727.727,0,0,1-.564-.838l.007-.033-.026-.021a.6.6,0,0,1-.2-.7l.009-.019Z" fill="#fff"/>
        <path id="Trazado_20" data-name="Trazado 20" d="M16.3,16.449a4.208,4.208,0,0,1-.059.59l0,.023.014.019a.761.761,0,0,0,.326.231l.063.023.009-.067a4.86,4.86,0,0,0,.01-1.067,1.505,1.505,0,0,0,.951-1.181c.035-.172.025-.179,0-.2l-.025-.021-.029.012a1.651,1.651,0,0,0-.971.971,1.653,1.653,0,0,0-.183-.451,1.1,1.1,0,0,0,.633-1.915l.274-.337-.518.061-.157-.266-.266.164-.209-.17-.108.215-.469-.183.126.381a1.087,1.087,0,0,0-.53.949,1.075,1.075,0,0,0,.878,1.079,1.42,1.42,0,0,1,.213.61,1.665,1.665,0,0,0-1.14-.75l-.046-.007-.015.044a1.643,1.643,0,0,0,.259.571,1.387,1.387,0,0,0,.971.669m.329-.434a1.574,1.574,0,0,1,.88-1.061,1.4,1.4,0,0,1-.9,1.147Zm.423-2.791-.1.125a1.1,1.1,0,0,0-.148-.1Zm.235,1.009a1,1,0,0,1-.7.952,1.473,1.473,0,0,0-.039-1.912,1,1,0,0,1,.743.96m-.689-1.2.1.177a1.126,1.126,0,0,0-.274-.071Zm-.4.013.1.084-.016,0c-.045,0-.09.007-.133.012Zm-.222.131a1.059,1.059,0,0,0-.167.058l-.045-.141ZM15.3,14.233a.968.968,0,0,1,.775-.967,1.478,1.478,0,0,0-.055,1.921.969.969,0,0,1-.72-.954m.945-.991.051,0c.027,0,.055,0,.081,0a1.384,1.384,0,0,1,.046,1.979,1.039,1.039,0,0,1-.126.008c-.038,0-.075-.005-.11-.008a1.387,1.387,0,0,1,.058-1.979m-.034,2.092c.024,0,.048.005.074.006a1.648,1.648,0,0,1,.245.67l.016.11.007.047a4.837,4.837,0,0,1,0,1.013.687.687,0,0,1-.193-.149,4.354,4.354,0,0,0,.058-.631v-.052l0-.174,0,0a1.954,1.954,0,0,0-.2-.836m.1.87.066.141h-.006c-.712-.05-1.057-.791-1.155-1.045a1.6,1.6,0,0,1,1.1.905" fill="#fff"/>
        <path id="Trazado_21" data-name="Trazado 21" d="M12.53,5.949a.215.215,0,0,1-.018-.215.229.229,0,0,1,.037-.051l.009-.007a.15.15,0,0,1-.188-.066.171.171,0,0,1,.1-.22,1.138,1.138,0,0,0-.2.074.218.218,0,0,1-.2-.014.175.175,0,0,1-.038-.192.525.525,0,0,1,.122-.167c-.109.026-.207.132-.315.1S11.717,5,11.775,4.9s.157-.163.22-.257a2.5,2.5,0,0,1-.517.18.218.218,0,0,1-.186-.016.088.088,0,0,1,0-.119l-.251.082a.3.3,0,0,1-.179.022c-.06-.018-.1-.089-.071-.14a.48.48,0,0,1-.291.1.175.175,0,0,1-.14-.091c-.037-.065-.009-.094.046-.139a.258.258,0,0,0-.168.276.2.2,0,0,0,.206.117.576.576,0,0,0,.236-.1c-.031.019.06.118.073.128a.3.3,0,0,0,.22.041.473.473,0,0,0,.12-.046c.014-.006.113-.052.113-.065,0,.055.078.07.133.068.111,0,.223,0,.334-.009a.24.24,0,0,0-.049.288.248.248,0,0,0,.274.115.2.2,0,0,0,.1.3.292.292,0,0,0,.294-.1.239.239,0,0,0-.027.043.246.246,0,0,0-.02.047.192.192,0,0,0-.013.1.238.238,0,0,0,.034.086.158.158,0,0,0,.065.055.2.2,0,0,0,.042.009.149.149,0,0,0,.089-.036c-.019.032-.038.064-.055.1a.351.351,0,0,0-.035.105.16.16,0,0,0,.143.17.2.2,0,0,0,.136-.024.5.5,0,0,0,.188-.254.209.209,0,0,1-.311.009" fill="#fff"/>
        <path id="Trazado_22" data-name="Trazado 22" d="M8.354,4.8a.754.754,0,0,0,.192-.1A.056.056,0,0,1,8.6,4.7c.014.01.014.03.017.048a.187.187,0,0,0,.177.153.4.4,0,0,0,.24-.079.4.4,0,0,0-.007.048.2.2,0,0,0,.168.083.593.593,0,0,0,.191-.036A.349.349,0,0,0,9.6,4.8a.185.185,0,0,1-.146.076.125.125,0,0,1-.09-.146.347.347,0,0,1,.092-.163,1.417,1.417,0,0,1-.35.152.284.284,0,0,1-.155.012.118.118,0,0,1-.094-.11.147.147,0,0,1,.042-.077A.356.356,0,0,1,9,4.458l-.3.122a.522.522,0,0,1-.234.055A.181.181,0,0,1,8.293,4.5a.155.155,0,0,1,.017-.092c-.013.009-.027.017-.04.027a.414.414,0,0,0-.128.142.177.177,0,0,0,.014.182.2.2,0,0,0,.2.048" fill="#fff"/>
        <path id="Trazado_23" data-name="Trazado 23" d="M13.411,3.043a.108.108,0,0,0-.028.011l-.025.011a.284.284,0,0,1-.115.022.141.141,0,0,1-.137-.1c-.009-.038.005-.083-.019-.115a.109.109,0,0,0-.111-.026c-.091.018-.279.152-.352.036a.088.088,0,0,1-.007-.062.133.133,0,0,1,.014-.044,1.154,1.154,0,0,1-.252.14c-.09.047-.181.09-.276.13a.147.147,0,0,1-.175-.015c-.052-.066,0-.173.05-.228a.361.361,0,0,1,.114-.1c-.241.1-.45.146-.708.236a1.957,1.957,0,0,0-.714.393.213.213,0,0,0-.071.1.084.084,0,0,0,.055.1,1.314,1.314,0,0,0-.706.543c-.033.053-.059.131-.011.172a.118.118,0,0,0,.084.022.434.434,0,0,0,.238-.079.137.137,0,0,1-.037-.155.342.342,0,0,1,.1-.136,1.858,1.858,0,0,1,.57-.361c-.032.014-.069-.02-.07-.054a.14.14,0,0,1,.042-.093c.02-.025.042-.048.063-.071a1.3,1.3,0,0,1,.334-.234,2.971,2.971,0,0,1,.4-.159l.059-.019a.264.264,0,0,0,.054-.016c-.041.131-.05.32.135.32a.673.673,0,0,0,.506-.23c-.04.06-.075.14-.033.2s.118.049.183.034a.915.915,0,0,0,.4-.211c-.047.061-.092.153-.037.207a.069.069,0,0,0,.022.016.172.172,0,0,0,.108.006.607.607,0,0,0,.148-.047.651.651,0,0,0,.172-.116s.034-.03.024-.034" fill="#fff"/>
        <path id="Trazado_24" data-name="Trazado 24" d="M9.527,6.1a2.692,2.692,0,0,1-.717.24c-.073.014-.178.005-.189-.068a.123.123,0,0,1,.031-.092.953.953,0,0,1,.332-.305,2.467,2.467,0,0,1-.688.214c-.1.015-.232-.007-.235-.1a.161.161,0,0,1,.049-.107A1.368,1.368,0,0,1,8.439,5.6a2.481,2.481,0,0,1-.646.3.329.329,0,0,1-.283-.009.139.139,0,0,1-.029-.176.833.833,0,0,1-.451.111A.137.137,0,0,1,6.949,5.8c-.075-.067.011-.192.075-.262a1.581,1.581,0,0,0-.251.3c-.035.06-.058.15,0,.188a.146.146,0,0,0,.077.015.911.911,0,0,0,.164-.016c.034-.007.068-.014.1-.022a1.075,1.075,0,0,0,.113-.039c.018-.008.094-.031.1-.049-.052.131.092.272.235.276a.682.682,0,0,0,.389-.157.144.144,0,0,0,.072.2.381.381,0,0,0,.241.008,2.308,2.308,0,0,0,.409-.127c-.051.127-.239.226-.176.346a.2.2,0,0,0,.145.082A.874.874,0,0,0,9.291,6.4a.233.233,0,0,1,.133-.059.367.367,0,0,1,.108.042.256.256,0,0,0,.236-.017A.236.236,0,0,1,9.527,6.1" fill="#fff"/>
        <path id="Trazado_25" data-name="Trazado 25" d="M6.559,7.013a.142.142,0,0,1,.013-.1.208.208,0,0,0,.019-.029c-.014,0-.026.014-.037.021l-.038.024a.581.581,0,0,1-.083.041.684.684,0,0,1-.178.045.561.561,0,0,1-.123,0,.4.4,0,0,1-.062-.009.068.068,0,0,1-.048-.018A.116.116,0,0,1,6,6.932a.181.181,0,0,1,0-.066l.008-.018A.181.181,0,0,1,6.035,6.8a.259.259,0,0,1,.041-.046,1.228,1.228,0,0,1-.432.18.1.1,0,0,1-.071,0c-.045-.027-.023-.094.005-.139a2.578,2.578,0,0,1,.459-.531,2.744,2.744,0,0,0-.509.435.266.266,0,0,0-.095.244.19.19,0,0,0,.2.109.556.556,0,0,0,.226-.085c.018-.011.037-.021.056-.031s.035-.015.051-.025a.483.483,0,0,0-.027.176.186.186,0,0,0,.023.077.094.094,0,0,0,.06.043.238.238,0,0,0,.088-.008.743.743,0,0,0,.119-.037A.772.772,0,0,0,6.4,7.07a.679.679,0,0,0,.112-.086c.007-.007.014-.017.023-.018A.2.2,0,0,1,6.525,7a.172.172,0,0,0-.01.039.156.156,0,0,0,.006.083.149.149,0,0,0,.066.076.122.122,0,0,0,.042.009.2.2,0,0,0,.049,0,.348.348,0,0,0,.162-.071,1.05,1.05,0,0,0,.334-.4,2.519,2.519,0,0,1-.513.284c-.021.007-.093.029-.1,0" fill="#fff"/>
        <path id="Trazado_26" data-name="Trazado 26" d="M22.209,4.522c.055.044.083.075.046.139a.177.177,0,0,1-.14.091.48.48,0,0,1-.291-.1c.033.051-.011.123-.07.14a.311.311,0,0,1-.18-.021l-.251-.082a.086.086,0,0,1,0,.118.206.206,0,0,1-.185.016,2.48,2.48,0,0,1-.518-.179c.063.093.163.159.221.257s.046.252-.062.287-.206-.071-.315-.1a.54.54,0,0,1,.122.168.173.173,0,0,1-.039.191.214.214,0,0,1-.2.014.963.963,0,0,0-.2-.073.17.17,0,0,1,.1.219.15.15,0,0,1-.188.067l.009.006a.219.219,0,0,1,.037.053.194.194,0,0,1-.329.2.514.514,0,0,0,.188.254.221.221,0,0,0,.136.025.163.163,0,0,0,.143-.172.345.345,0,0,0-.035-.1c-.016-.034-.036-.065-.055-.1a.137.137,0,0,0,.089.035.117.117,0,0,0,.042-.009.144.144,0,0,0,.065-.055.217.217,0,0,0,.034-.085.215.215,0,0,0-.011-.1c-.007-.015-.014-.032-.022-.046a.157.157,0,0,0-.027-.043.293.293,0,0,0,.294.1.2.2,0,0,0,.107-.3.252.252,0,0,0,.273-.115.241.241,0,0,0-.05-.288c.112,0,.223.005.334.009.056,0,.131-.014.132-.069,0,.013.1.059.114.066a.513.513,0,0,0,.12.046.284.284,0,0,0,.22-.042c.014-.009.1-.108.073-.127a.558.558,0,0,0,.236.1.193.193,0,0,0,.206-.118.26.26,0,0,0-.168-.276" fill="#fff"/>
        <path id="Trazado_27" data-name="Trazado 27" d="M23.163,4.87a.189.189,0,0,1-.146-.075.345.345,0,0,0,.208.122.647.647,0,0,0,.193.037.206.206,0,0,0,.168-.084l-.006-.047a.4.4,0,0,0,.239.078A.188.188,0,0,0,24,4.749c0-.017,0-.039.016-.049a.05.05,0,0,1,.053.009.8.8,0,0,0,.192.095.2.2,0,0,0,.2-.047.178.178,0,0,0,.012-.182.4.4,0,0,0-.127-.143L24.3,4.406a.155.155,0,0,1,.016.092.181.181,0,0,1-.174.137.537.537,0,0,1-.234-.056l-.3-.122a.353.353,0,0,1,.109.081.137.137,0,0,1,.04.077.115.115,0,0,1-.092.111.3.3,0,0,1-.155-.012,1.46,1.46,0,0,1-.351-.153.344.344,0,0,1,.093.164.124.124,0,0,1-.09.145" fill="#fff"/>
        <path id="Trazado_28" data-name="Trazado 28" d="M19.225,3.077a.682.682,0,0,0,.17.116.728.728,0,0,0,.15.048.176.176,0,0,0,.107-.008.07.07,0,0,0,.023-.015c.054-.055.009-.145-.037-.206a.925.925,0,0,0,.4.211.174.174,0,0,0,.182-.035c.042-.058.007-.138-.033-.2a.683.683,0,0,0,.5.23c.186,0,.178-.191.136-.322a.2.2,0,0,0,.055.017l.057.019a2.694,2.694,0,0,1,.4.16,1.234,1.234,0,0,1,.334.234.6.6,0,0,1,.064.07.142.142,0,0,1,.043.093c0,.035-.038.069-.07.054a1.851,1.851,0,0,1,.57.361.373.373,0,0,1,.1.136.137.137,0,0,1-.037.155.448.448,0,0,0,.238.079.124.124,0,0,0,.084-.022c.047-.04.021-.118-.013-.171a1.3,1.3,0,0,0-.7-.544.085.085,0,0,0,.055-.1.215.215,0,0,0-.071-.1,1.967,1.967,0,0,0-.714-.393,7.237,7.237,0,0,1-.773-.277.743.743,0,0,1,.178.141c.046.053.1.161.049.226a.145.145,0,0,1-.175.016c-.093-.04-.185-.082-.274-.129a1.1,1.1,0,0,1-.253-.141A.245.245,0,0,1,20,2.82a.09.09,0,0,1-.008.063c-.072.117-.261-.017-.353-.036a.106.106,0,0,0-.11.025c-.023.032-.009.078-.018.117a.141.141,0,0,1-.139.1.3.3,0,0,1-.113-.023.117.117,0,0,1-.026-.01c-.006,0-.022-.013-.027-.011s.019.029.024.034" fill="#fff"/>
        <path id="Trazado_29" data-name="Trazado 29" d="M23.079,6.382a.349.349,0,0,1,.109-.043.228.228,0,0,1,.134.058.871.871,0,0,0,.645.138.2.2,0,0,0,.144-.083c.063-.121-.123-.219-.176-.346a2.209,2.209,0,0,0,.41.127.385.385,0,0,0,.24-.007.145.145,0,0,0,.072-.2.693.693,0,0,0,.389.158c.144-.005.287-.146.235-.277.008.019.084.042.1.049a.79.79,0,0,0,.113.038c.032.009.065.017.1.023a.953.953,0,0,0,.165.017.126.126,0,0,0,.076-.017c.06-.036.037-.127,0-.186a1.588,1.588,0,0,0-.25-.3c.062.069.148.2.075.262a.13.13,0,0,1-.082.024.837.837,0,0,1-.451-.11.139.139,0,0,1-.03.176.33.33,0,0,1-.282.009,2.392,2.392,0,0,1-.646-.3,1.357,1.357,0,0,1,.329.289.165.165,0,0,1,.05.107c0,.095-.14.115-.235.1a2.448,2.448,0,0,1-.69-.214.955.955,0,0,1,.333.305.131.131,0,0,1,.031.091c-.011.074-.115.083-.19.069a2.666,2.666,0,0,1-.717-.239.235.235,0,0,1-.241.26.259.259,0,0,0,.236.018" fill="#fff"/>
        <path id="Trazado_30" data-name="Trazado 30" d="M25.773,7.134a.361.361,0,0,0,.161.072.268.268,0,0,0,.049,0,.092.092,0,0,0,.043-.009.151.151,0,0,0,.065-.076.163.163,0,0,0,.007-.082.234.234,0,0,0-.01-.04.087.087,0,0,1-.006-.032c.009,0,.016.014.023.018a.841.841,0,0,0,.11.087,1.023,1.023,0,0,0,.172.086,1.17,1.17,0,0,0,.119.036.287.287,0,0,0,.087.009.1.1,0,0,0,.061-.045.151.151,0,0,0,.021-.075.434.434,0,0,0-.027-.178c.017.011.036.016.053.025l.055.032a.591.591,0,0,0,.227.085.192.192,0,0,0,.2-.11.26.26,0,0,0-.1-.243,2.644,2.644,0,0,0-.508-.435,2.725,2.725,0,0,1,.46.53c.028.046.049.112.005.139a.1.1,0,0,1-.073,0,1.258,1.258,0,0,1-.432-.179.222.222,0,0,1,.042.045.2.2,0,0,1,.027.052l.008.018a.185.185,0,0,1,0,.066.119.119,0,0,1-.024.062.067.067,0,0,1-.048.016.329.329,0,0,1-.062.008.58.58,0,0,1-.125,0,.713.713,0,0,1-.176-.046.581.581,0,0,1-.083-.041.314.314,0,0,1-.039-.024c-.011-.006-.023-.02-.036-.02,0,.011.014.019.018.029a.152.152,0,0,1,.014.1c-.009.034-.083.013-.1,0a2.552,2.552,0,0,1-.512-.282,1.027,1.027,0,0,0,.334.4" fill="#fff"/>
        <path id="Trazado_31" data-name="Trazado 31" d="M15.94,10.666a.758.758,0,0,1-.572-.518l-.108.172a.722.722,0,0,0,.68.346" fill="#fff"/>
        <path id="Trazado_32" data-name="Trazado 32" d="M15.056,3.74a.136.136,0,1,0,.136.136.136.136,0,0,0-.136-.136m0,.2a.06.06,0,0,1-.06-.06.06.06,0,0,1,.12,0,.06.06,0,0,1-.06.06" fill="#fff"/>
        <path id="Trazado_33" data-name="Trazado 33" d="M30.75,12.09a.221.221,0,0,0-.2-.1l-1.826.395-.2.981-.477.313c-.008-.842-.046-1.727-.116-2.637l.967.21,1.077-1.492a.214.214,0,0,0,.007-.245.225.225,0,0,0-.2-.1l-1.826.4-.2.981-4.371,2.861c-.019-.377-.044-.756-.081-1.148,0-.014,0-.024,0-.033a2.312,2.312,0,0,0,.3.022,1.128,1.128,0,0,0,.63-.165c.607-.392.8-1.568.829-1.8l0-.028-.062-.036a1.154,1.154,0,0,1-.467-.612,1.282,1.282,0,0,1,.288.068c.083.03.171.073.266.118a2.057,2.057,0,0,0,.9.262,1.389,1.389,0,0,0,.375-.053,1.776,1.776,0,0,0,.811-.491l.063-.08-.713-.064.225-.664-.143.1a3.224,3.224,0,0,1-.494.306l-.03.009a.9.9,0,0,1-.728-.084,1.423,1.423,0,0,0-.7-.127,1.1,1.1,0,0,0-.592.325,1.2,1.2,0,0,0-.41.519l-.005.026a.988.988,0,0,0-.02.106l0,.015h0a.8.8,0,0,0,0,.2,1.1,1.1,0,0,0,.08.285,1.374,1.374,0,0,0,.109.2l0,0a6.253,6.253,0,0,1-1.864-.338,5.854,5.854,0,0,0-1.741-.279,4.916,4.916,0,0,0-2.031.432.191.191,0,0,0-.01-.052.594.594,0,0,0-.065-.122.89.89,0,0,1-.146-.339A1.406,1.406,0,0,1,18,9.726a1.285,1.285,0,0,0-.035-.562.7.7,0,0,0-.154-.281c-.029-.031-.057-.066-.085-.1l-.037-.046a.636.636,0,0,0,.1-.336.1.1,0,0,1,.022-.043l.01-.015a.491.491,0,0,1,.031-.044.533.533,0,0,0,.05-.074A.389.389,0,0,0,17.949,8l0-.126A.292.292,0,0,0,18,7.832a.355.355,0,0,0,.319.225.58.58,0,0,0,.407-.184.241.241,0,0,0,.109.087.308.308,0,0,0,.272-.058,1.054,1.054,0,0,0,.28-.25.229.229,0,0,0,.11.009c.14-.022.22-.161.27-.268l.01-.022c.021-.053.027-.058.042-.066A.375.375,0,0,0,20,7.067a.217.217,0,0,0,.042-.011.088.088,0,0,1,.112.014.193.193,0,0,0,.215.02.241.241,0,0,0,.211.073.279.279,0,0,0,.141-.069.255.255,0,0,0,.067.038c.045.018.074.054.121.117l.018.023a.354.354,0,0,0,.286.165.322.322,0,0,0,.223-.1.346.346,0,0,0,.277.061.352.352,0,0,0,.23-.217,1.082,1.082,0,0,0,.1-.355.263.263,0,0,0,.174-.085l.045.037c.024.02.046.038.062.049a2.978,2.978,0,0,0,.4.23.451.451,0,0,0,.159.052.287.287,0,0,0,.132-.015c.015.01.037.024.062.043.381.27.619.4.785.3a.221.221,0,0,0,.069-.066,3.008,3.008,0,0,0,.727.409.275.275,0,0,0,.17.005.239.239,0,0,0,.1-.062c.059.04.119.083.18.128a3.037,3.037,0,0,0,.651.39.291.291,0,0,0,.292,0,.3.3,0,0,0,.126-.2,1.183,1.183,0,0,0,.468.282l.013,0a.254.254,0,0,0,.23-.051,2.625,2.625,0,0,0,.5.336.254.254,0,0,0,.27-.028.24.24,0,0,0,.074-.1,2.372,2.372,0,0,1,.423.234.346.346,0,0,0,.393.054.224.224,0,0,0,.09-.113,2.421,2.421,0,0,0,.253.19c.076.058.312.218.479.127a.221.221,0,0,0,.108-.151l.161.1c.085.047.168.1.256.162a1.7,1.7,0,0,0,.6.3l.014,0c.013,0,.024,0,.036,0a.2.2,0,0,0,.134-.047.21.21,0,0,0,.068-.2,1.338,1.338,0,0,0-.422-.752,15.776,15.776,0,0,0-1.594-1.464c-.2-.173-.419-.352-.622-.53a42.9,42.9,0,0,0-4.4-3.366,8.215,8.215,0,0,0-4.155-1.494,2.853,2.853,0,0,0-1.429.231c-.85.445-.577,1.362-.378,2.033l.018.056a.992.992,0,0,1,.042.766.328.328,0,0,1-.168.129l0-.008-.019-.018a1.267,1.267,0,0,0-1.07-.358,1.464,1.464,0,0,1-.159-.113,1.068,1.068,0,0,0-.16-.677.951.951,0,0,0-.145-.171l-.005-.005V3.4a.366.366,0,0,0-.11-.238.428.428,0,0,0-.31-.112.788.788,0,0,0-.279.067l-.021.008a.326.326,0,0,1-.169.041.176.176,0,0,1-.032-.015,1.318,1.318,0,0,0-.224-1.1,2.188,2.188,0,0,0-1.767-.506A8.228,8.228,0,0,0,9.007,3.038,43.087,43.087,0,0,0,4.607,6.4c-.2.178-.417.356-.622.53A15.364,15.364,0,0,0,2.389,8.4a1.321,1.321,0,0,0-.42.747.206.206,0,0,0,.094.212.224.224,0,0,0,.117.031.85.85,0,0,0,.428-.176c.1-.068.2-.129.3-.189s.168-.1.251-.155a.071.071,0,0,1,.1.019.22.22,0,0,0,.094.089c.149.072.349-.028.657-.271a.069.069,0,0,1,.1.009.271.271,0,0,0,.061.057.349.349,0,0,0,.39-.059,2.059,2.059,0,0,1,.364-.208.068.068,0,0,1,.084.025.264.264,0,0,0,.047.048.255.255,0,0,0,.269.029,2.234,2.234,0,0,0,.456-.3l.049-.037a.259.259,0,0,0,.23.051l.014,0a1.057,1.057,0,0,0,.39-.216.069.069,0,0,1,.106.023.271.271,0,0,0,.1.115.285.285,0,0,0,.284,0,3.076,3.076,0,0,0,.659-.394c.061-.045.121-.088.18-.128a.239.239,0,0,0,.1.062.275.275,0,0,0,.17-.005A2.853,2.853,0,0,0,8.739,7.4a.071.071,0,0,1,.088.007.223.223,0,0,0,.1.049c.162.038.385-.088.711-.318l.07-.048a.289.289,0,0,0,.132.015l.022,0a1.686,1.686,0,0,0,.459-.229l.076-.05c.016-.011.038-.029.062-.049l.045-.037a.255.255,0,0,0,.132.077.069.069,0,0,1,.048.059.638.638,0,0,0,.285.506.314.314,0,0,0,.277-.019.066.066,0,0,1,.075.005.3.3,0,0,0,.186.068.344.344,0,0,0,.286-.165l.018-.024c.048-.064.076-.1.121-.116A.255.255,0,0,0,12,7.094a.275.275,0,0,0,.141.069.245.245,0,0,0,.21-.071.2.2,0,0,0,.216-.022.089.089,0,0,1,.112-.015.133.133,0,0,0,.042.012A.372.372,0,0,0,12.9,7.3c.015.008.021.013.042.066l.012.024c.047.1.127.243.268.266a.243.243,0,0,0,.132-.018v.008l.017.077.067-.042a.834.834,0,0,0,.276-.333,1.275,1.275,0,0,0,.189.457,1.107,1.107,0,0,0-.388,1.019l.014.077.069-.039a.822.822,0,0,0,.292-.336,1.276,1.276,0,0,0,.237.57,1.022,1.022,0,0,0-.268,1.026l.021.076.064-.045a.825.825,0,0,0,.253-.347,1.3,1.3,0,0,0,.086.3c.086.194.07.244.234.367a.953.953,0,0,0-.082.14,4.878,4.878,0,0,0-1.925-.388,5.848,5.848,0,0,0-1.74.279,6.258,6.258,0,0,1-1.864.338v0a1.287,1.287,0,0,0,.109-.2,1.1,1.1,0,0,0,.08-.285.8.8,0,0,0,0-.2h0l0-.015a.988.988,0,0,0-.02-.106L9.07,10a1.2,1.2,0,0,0-.409-.519,1.106,1.106,0,0,0-.593-.325,1.417,1.417,0,0,0-.7.127.9.9,0,0,1-.729.084l-.03-.009a3.224,3.224,0,0,1-.494-.306l-.143-.1.225.664-.713.064.063.08a1.784,1.784,0,0,0,.812.491,1.376,1.376,0,0,0,.374.053,2.058,2.058,0,0,0,.9-.262c.094-.045.183-.088.265-.118a1.278,1.278,0,0,1,.289-.068,1.159,1.159,0,0,1-.468.612l-.062.036,0,.028c.031.232.221,1.408.828,1.8a1.128,1.128,0,0,0,.63.165,2.274,2.274,0,0,0,.289-.021q-.055.594-.085,1.176L4.958,10.794l-.2-.981L2.934,9.419a.214.214,0,0,0-.2.1.212.212,0,0,0,0,.245l1.077,1.492.968-.21c-.071.91-.109,1.8-.115,2.637l-.478-.313L4,12.386l-1.827-.393a.211.211,0,0,0-.2.1.214.214,0,0,0,0,.244l1.077,1.492.938-.2a21.467,21.467,0,0,0,.835,10.445,9.305,9.305,0,0,0,1.828,3.164,6.083,6.083,0,0,0,4.366,2.043,6.558,6.558,0,0,0,3.7-1.258,14.4,14.4,0,0,1-1.538,3.07l-.06.09.108,0a5.354,5.354,0,0,1,1.19.084l-.185.756a.332.332,0,0,0-.019.125.253.253,0,0,0,.084.19.749.749,0,0,0,.623.081,1.223,1.223,0,0,1,.324-.016l.029.8a.189.189,0,0,0,0,.047.18.18,0,0,0,.023.057c.1.15.456.227,1.064.227s.964-.077,1.062-.227a.146.146,0,0,0,.024-.1l.028-.8a1.22,1.22,0,0,1,.324.016.75.75,0,0,0,.624-.081.255.255,0,0,0,.084-.187.453.453,0,0,0,0-.052.994.994,0,0,0-.033-.141l-.056-.23c-.021-.09-.044-.18-.066-.27-.014-.059-.028-.119-.043-.177l0-.014a5.334,5.334,0,0,1,1.189-.084l.108,0-.061-.09A14.409,14.409,0,0,1,18,28.01a6.552,6.552,0,0,0,3.7,1.265,6.111,6.111,0,0,0,4.38-2.057,9.009,9.009,0,0,0,1.808-3.15,21.458,21.458,0,0,0,.834-10.445l.938.2,1.077-1.492a.212.212,0,0,0,.007-.244m-2.539-2.029,1.408-.305-.844,1.168-.706-.154Zm-24.266.863L3.1,9.756l1.408.305.143.709ZM3.18,13.5l-.843-1.168,1.407.3.143.709Zm22.463-.963,2.008-1.313c.067.916.1,1.807.105,2.652l-2.286,1.5c.1-.858.153-1.789.173-2.835M23.409,14l.953-.624a26.256,26.256,0,0,1-.267,2.9l-.741.486A23.286,23.286,0,0,0,23.409,14m-.09,3.133,1.185-.776a17.862,17.862,0,0,1-.8,4.812,13.111,13.111,0,0,1-1,2.3A13.361,13.361,0,0,1,21.3,25.53c-.278.337-.572.657-.878.966a5.993,5.993,0,0,1-.485-.526,16.518,16.518,0,0,0,3.381-8.841M18.126,25.9A.215.215,0,0,0,18,25.821l-.022-.008c-.026-.01-.043-.026-.043-.033a.168.168,0,0,1,.028-.022.309.309,0,0,0,.046-.037.206.206,0,0,0,0-.258.377.377,0,0,0-.382-.141.758.758,0,0,0-.151.062c-.023.013-.047.025-.071.036a.2.2,0,0,1-.172,0,.261.261,0,0,1-.049-.054.4.4,0,0,0-.08-.08.319.319,0,0,0-.162-.039l-.643-.041a.155.155,0,0,0-.175.093c-.013.013-.042.013-.086.011a.366.366,0,0,0-.117.011.309.309,0,0,0-.144.124.3.3,0,0,1-.065.074.323.323,0,0,1-.238.019c-.042,0-.087-.012-.13-.013a.5.5,0,0,0-.379.164.234.234,0,0,0-.043.222.347.347,0,0,0,.027.046.092.092,0,0,1,.016.027.1.1,0,0,1-.03.1.264.264,0,0,1-.168.054.339.339,0,0,0-.225.081.3.3,0,0,0-.044.069.23.23,0,0,1-.033.049.2.2,0,0,1-.049.027.418.418,0,0,0-.056.028c-.12.08-.12.226-.122.354a1.031,1.031,0,0,1-.006.136,13.571,13.571,0,0,1-2.888-4.126h.837c.018.039.037.075.055.114a1.8,1.8,0,0,0,.471.7,1.154,1.154,0,0,1,.15.23,1.541,1.541,0,0,0,.152.232,1.393,1.393,0,0,0,.307.253,2.989,2.989,0,0,0,1.034.52,2.829,2.829,0,0,0,.285.04,2.324,2.324,0,0,1,.332.053c.077.02.151.047.23.076.063.024.128.048.193.067a3.022,3.022,0,0,0,.742.092,4.284,4.284,0,0,0,1.251-.077l.06-.016c.2-.055.413-.112.555,0a.69.69,0,0,1,.141.179c.074.12.15.242.308.254a.089.089,0,0,1,.049.007.182.182,0,0,1,.009.079c0,.021,0,.043,0,.069a.189.189,0,0,0,.15.154.21.21,0,0,0,.066.009.226.226,0,0,0,.179-.081.318.318,0,0,0-.062-.418l-.011-.008a.107.107,0,0,1-.026-.028s0-.021.025-.062a.974.974,0,0,1,.689-.4l.063,0a.555.555,0,0,0,.28-.068l.08-.052-.085-.044a.938.938,0,0,1-.164-.106.474.474,0,0,1,.662.117A12.52,12.52,0,0,1,18.4,26.991a.218.218,0,0,1-.026-.089l0-.014a.239.239,0,0,0-.037-.059.159.159,0,0,1-.022-.036.189.189,0,0,1-.008-.063c0-.021,0-.042-.006-.063a.357.357,0,0,0-.264-.249.162.162,0,0,1-.06-.028.565.565,0,0,1,.077-.147.356.356,0,0,0,.08-.341M14.832,12.373a4.841,4.841,0,0,1-3.966-.25c.172-.048.347-.1.533-.144a6.76,6.76,0,0,1,3.437.167,1.079,1.079,0,0,0,0,.227m.616.066a1.135,1.135,0,0,0,.357.321l.069.038.013-.077a1.053,1.053,0,0,0-.045-.47c.117-.061.234-.126.352-.2a1.266,1.266,0,0,0,.084.174l.042.069.05-.064a.864.864,0,0,0,.113-.2,5.987,5.987,0,0,0,3.1.93,5.167,5.167,0,0,0,2.548-.681l.091-.056c.226.063.437.121.634.165,0,.036,0,.076.007.093a23.416,23.416,0,0,1-.036,5.1H9.894A23.473,23.473,0,0,1,9.846,12.4c.2-.045.416-.1.647-.167a5.341,5.341,0,0,0,4.955.211M14.365,8.5h0c0-.016-.011-.034-.016-.051a.917.917,0,0,0,.376.209l.075.019L14.8,8.6a.943.943,0,0,0-.233-.511h0a1.142,1.142,0,0,0-.378-.276,1.241,1.241,0,0,0,.024-.286l.38.3.106.151.009.309a.523.523,0,0,0,.05.073c.01.015.021.029.03.044l.011.015a.115.115,0,0,1,.021.044.618.618,0,0,0,.106.335c-.013.015-.026.031-.037.046-.03.037-.056.07-.085.1a.694.694,0,0,0-.144.25A2.513,2.513,0,0,0,14.38,9a1.425,1.425,0,0,0-.015-.5m.142-4.214a1.437,1.437,0,0,1-.028.221,1.313,1.313,0,0,1-.12.349,1.044,1.044,0,0,1-.346.4,1.2,1.2,0,0,1,.285-.769,1.327,1.327,0,0,1,.209-.2m-.083-.2a.626.626,0,0,0-.554.181l-.007,0a.3.3,0,0,1,.034-.148.562.562,0,0,1,.062-.1.675.675,0,0,1,.2-.168A.3.3,0,0,1,14.3,3.82a.57.57,0,0,1,.125.016.113.113,0,0,1,.082.1.221.221,0,0,1-.025.15H14.47a.233.233,0,0,1-.046,0m-.331,2h0c0-.046,0-.092,0-.139a.893.893,0,0,0,.373.3l.073.029.005-.078a.953.953,0,0,0-.16-.538v0a1.149,1.149,0,0,0-.318-.315,1.144,1.144,0,0,0,.391-.441h0a1.48,1.48,0,0,0,.123-.351,1.757,1.757,0,0,0,.154.353,1.159,1.159,0,0,0,.424.408,1.107,1.107,0,0,0-.039,1.044l.038.071.053-.061a.912.912,0,0,0,.187-.467,1.186,1.186,0,0,0,.433.5,1.3,1.3,0,0,0-.175.193,1.055,1.055,0,0,0-.195.768l.011.077.069-.035a.861.861,0,0,0,.346-.4,1.272,1.272,0,0,0,.278.614,1.138,1.138,0,0,0-.348.353,1.045,1.045,0,0,0-.148.537v.078l.073-.025a.8.8,0,0,0,.356-.288,1.32,1.32,0,0,0,.146.68,1.13,1.13,0,0,0-.21.117,1.038,1.038,0,0,0-.418.665l-.012.075L15.68,9.8a.787.787,0,0,0,.408-.223,1.334,1.334,0,0,0,.087.823,1.473,1.473,0,0,0-.217.333,1.351,1.351,0,0,0-.122.775,5.323,5.323,0,0,0-.616-.47.994.994,0,0,0-.061-.176h0a.743.743,0,0,0-.043-.077.842.842,0,0,0,.3.057.7.7,0,0,0,.08,0l.073-.008-.027-.067a.9.9,0,0,0-.372-.408h0l-.039-.018c-.008-.117-.042-.235-.178-.251a.459.459,0,0,0-.148.011.041.041,0,0,1-.029,0,.036.036,0,0,1-.013-.021A1.267,1.267,0,0,1,14.7,9.78a.826.826,0,0,0,.247.13l.073.023,0-.076a.92.92,0,0,0-.2-.524h0a.55.55,0,0,0-.07-.064.614.614,0,0,1,.04-.086,2.673,2.673,0,0,1,.232-.33c.013-.017.031-.034.051-.03a.315.315,0,0,1-.164-.22.651.651,0,0,1,0-.245c0-.012.009-.028.022-.032a.18.18,0,0,1-.114-.129A.487.487,0,0,1,14.8,8.01l0-.029-.232-.348a.486.486,0,0,1-.368-.206L14.2,7.414c0-.038-.008-.076-.015-.114a.861.861,0,0,0,.307.172l.075.022,0-.077a.957.957,0,0,0-.211-.521h0a1.109,1.109,0,0,0-.393-.3,1.318,1.318,0,0,0,.134-.5m-.1-.655a1.022,1.022,0,0,1,.3.289.925.925,0,0,1,.14.387.821.821,0,0,1-.281-.266,1.1,1.1,0,0,1-.106-.224c-.01-.039-.02-.077-.033-.115s-.012-.047-.016-.071M14.642,4.3a1.29,1.29,0,0,1,.395.4,1.186,1.186,0,0,1,.169.526,1.046,1.046,0,0,1-.375-.364,1.365,1.365,0,0,1-.189-.559m.6,1.112a1.116,1.116,0,0,1,.058.432.919.919,0,0,1-.115.388,1.022,1.022,0,0,1,.057-.82m.131-.033a1.3,1.3,0,0,1,.38.414,1.279,1.279,0,0,1,.143.45V6.3a1.128,1.128,0,0,1-.523-.926m.511,1.14c0,.018,0,.034,0,.052s0,.053-.005.08a1.191,1.191,0,0,1-.077.3.879.879,0,0,1-.232.319.953.953,0,0,1,.185-.6,1.447,1.447,0,0,1,.131-.151m.58,1.864a1.2,1.2,0,0,1-.1.522l-.017-.008a1.234,1.234,0,0,1-.106-.791,1.781,1.781,0,0,1,.084-.292,1.437,1.437,0,0,1,.144.569M16.4,7.553a1.013,1.013,0,0,1,.279.311.933.933,0,0,1,.117.395.89.89,0,0,1-.351-.493,1.491,1.491,0,0,1-.045-.213m-.289,3.833a.878.878,0,0,1-.145.219,1.249,1.249,0,0,1,.093-.821,1.387,1.387,0,0,1,.154-.251,1.264,1.264,0,0,1,.025.217,1.2,1.2,0,0,1,0,.207,1.6,1.6,0,0,0-.1.291,1.29,1.29,0,0,0-.026.138m.005.375-.012.008-.072-.074a.673.673,0,0,0,.069-.08c0,.05.008.1.015.146m-.823-.114a1.315,1.315,0,0,1,.366.432,1.157,1.157,0,0,1,.128.539,1.148,1.148,0,0,1-.445-.661,1.724,1.724,0,0,1-.049-.31m.013.539a.208.208,0,0,1-.03.012l-.061-.026c.011-.026.019-.051.028-.078h0c.005-.014.008-.031.012-.046a1.451,1.451,0,0,0,.051.139m.418-.214a1.4,1.4,0,0,0-.43-.458,1.868,1.868,0,0,0-.037-.317,4.938,4.938,0,0,1,.622.5l.007.027.026.075.038-.031.048.048-.013.008-.176.1c-.029.015-.057.032-.085.048m.5-.555a1.283,1.283,0,0,0,.094-.268h0a1.166,1.166,0,0,0,.026-.155,1.334,1.334,0,0,1,.071.2,1.368,1.368,0,0,1,.051.371,1.159,1.159,0,0,1-.13.528,1.245,1.245,0,0,1-.112-.677m.119-.938a1.08,1.08,0,0,1,.231.343.891.891,0,0,1,.068.384.984.984,0,0,1-.3-.727m-.092-.195a1.232,1.232,0,0,1-.01-.826,1.492,1.492,0,0,1,.121-.274,1.471,1.471,0,0,1,.067.585,1.176,1.176,0,0,1-.178.515m-.184-.835a.839.839,0,0,1-.317.225.91.91,0,0,1,.355-.507.984.984,0,0,1,.175-.1c-.012.036-.028.073-.043.108l-.014.033a1.075,1.075,0,0,1-.156.242m-.01-2.826a1.106,1.106,0,0,0,.085.095A1.215,1.215,0,0,1,16.3,7.4l-.007.045a.222.222,0,0,0,0,.037c0,.026-.008.052-.014.076l-.01.006a1.2,1.2,0,0,1-.285-.747c0-.056,0-.117,0-.176,0-.03.006-.058.008-.087V6.54c.02.029.041.057.06.083m-.027-.251a.953.953,0,0,1,.363.177.881.881,0,0,1,.253.323.821.821,0,0,1-.41-.217,1.415,1.415,0,0,0-.206-.283M16.2,7.73a1.138,1.138,0,0,1-.144.415.862.862,0,0,1-.273.28.932.932,0,0,1,.129-.392,1,1,0,0,1,.288-.3m-1.088,2.721a.881.881,0,0,1,.29.282.756.756,0,0,1-.365-.1.939.939,0,0,1-.086-.059.772.772,0,0,1-.168-.157q-.033-.039-.06-.078a.929.929,0,0,1,.389.115m-.3-.2.01-.016a.16.16,0,0,1,.072-.063.123.123,0,0,1,.047-.011.089.089,0,0,1,.041.01.072.072,0,0,1,.025.024.1.1,0,0,1,.013.036.344.344,0,0,1,.005.045.243.243,0,0,1,0,.027c-.066-.019-.143-.038-.213-.052m-.552-3.29a.918.918,0,0,1,.178.373.85.85,0,0,1-.324-.266,1.494,1.494,0,0,0-.154-.3c-.007-.023-.016-.047-.023-.069a1,1,0,0,1,.323.259m-.115.956a1.043,1.043,0,0,1,.329.244.928.928,0,0,1,.193.362.784.784,0,0,1-.315-.224,1.1,1.1,0,0,1-.21-.377l0,0m.585,1.48a.921.921,0,0,1,.169.375.856.856,0,0,1-.413-.429,1.605,1.605,0,0,1-.075-.208.986.986,0,0,1,.319.262m-.023,1.1a1.318,1.318,0,0,0,.159.147,1.4,1.4,0,0,1,.19.268,1.169,1.169,0,0,1,.128.539,1.148,1.148,0,0,1-.445-.661l-.018-.081a1.389,1.389,0,0,0-.028-.181c0-.015,0-.031,0-.048l.017.017m.425,1.561a.951.951,0,0,1-.189.341.877.877,0,0,1,.029-.387,1.141,1.141,0,0,1,.2-.366,1.06,1.06,0,0,1-.037.412m2.453.2a6.513,6.513,0,0,1,3.741-.282c.171.044.333.089.491.133a4.835,4.835,0,0,1-4.232.149m5.2,5.616a17.482,17.482,0,0,1-1.262,4.595H16.5v-.136l.338-.72-.322-.975a1.442,1.442,0,0,1,.515.174c.036.142.2.737.469.827a1.079,1.079,0,0,0,.336.047,1.253,1.253,0,0,0,.574-.117l.066-.042-.061-.048a3.171,3.171,0,0,1-.4-.345,1.461,1.461,0,0,1-.24-1.038c0-.021,0-.053.007-.091.037-.379.149-1.533-.824-1.717a1.784,1.784,0,0,0-.631,0,2.026,2.026,0,0,0-.53.176,2.435,2.435,0,0,0-.4.241,1.788,1.788,0,0,0-.219.173.43.43,0,0,0-.106.271,1.974,1.974,0,0,0-.023.288.292.292,0,0,0,.034.164.139.139,0,0,0,.188.055l.035-.012a8,8,0,0,1-.13,1.191l-.019.118.1-.061a2.276,2.276,0,0,1,.775-.252l-.324.977.35.72v.136H11.211a17.5,17.5,0,0,1-1.276-4.595Zm-3.229,6.691a1,1,0,0,0,.144.116,1.314,1.314,0,0,1-.131.014c-.022,0-.045,0-.066,0a1.083,1.083,0,0,0-.769.443.181.181,0,0,0-.038.167.192.192,0,0,0,.058.071l.008.008a.206.206,0,0,1,.049.265.123.123,0,0,1-.13.034c-.018,0-.061-.02-.068-.058,0-.02,0-.039,0-.058a.2.2,0,0,0-.043-.159.165.165,0,0,0-.124-.037c-.095-.008-.151-.1-.216-.2a.8.8,0,0,0-.166-.209.723.723,0,0,0-.653-.02l-.059.015a4.12,4.12,0,0,1-1.219.074,2.917,2.917,0,0,1-.715-.088c-.063-.017-.124-.04-.186-.063a2.178,2.178,0,0,0-.24-.08,2.342,2.342,0,0,0-.347-.056,2.492,2.492,0,0,1-.275-.038,2.957,2.957,0,0,1-.995-.5,1.338,1.338,0,0,1-.284-.233,1.287,1.287,0,0,1-.139-.216,1.321,1.321,0,0,0-.173-.255,1.709,1.709,0,0,1-.446-.672c-.01-.022-.021-.044-.031-.067h9.09a14.694,14.694,0,0,1-.98,1.8.6.6,0,0,0-.846-.079l-.061.038Zm-3.718-2.959.325-.981a1.792,1.792,0,0,1,.232,0l.325.982L16.4,22.3l0,.172h-.212V22.31Zm1.468-2.247a.877.877,0,0,0-.618-.536,1.065,1.065,0,0,0-.669.168,2.761,2.761,0,0,0-.477.338,2.006,2.006,0,0,1-.206.173.26.26,0,0,1-.112.057c-.038,0-.054-.05-.054-.08a2.081,2.081,0,0,1,.024-.353.321.321,0,0,1,.027-.1.373.373,0,0,1,.092-.106,2.144,2.144,0,0,1,1.369-.551,1.063,1.063,0,0,1,.578.147,1.046,1.046,0,0,1,.415.721,4.284,4.284,0,0,1,.007.855,2,2,0,0,0,.1.844,1.151,1.151,0,0,0,.5.566,1.3,1.3,0,0,1-.6.066.437.437,0,0,1-.192-.06.478.478,0,0,1-.142-.175,2.033,2.033,0,0,1-.188-.491.244.244,0,0,0-.038-.1.2.2,0,0,0-.06-.043,1.645,1.645,0,0,0-.875-.188,2.366,2.366,0,0,0-.873.227,6.957,6.957,0,0,0,.113-1.087.224.224,0,0,1,.006-.058l.005-.014a.213.213,0,0,1,.043-.052,2.9,2.9,0,0,1,.7-.491.788.788,0,0,1,.608-.08.634.634,0,0,1,.278.219,1.953,1.953,0,0,1,.3,1.018l.107,0a2.629,2.629,0,0,0-.164-.831m6.832-9.794a1.01,1.01,0,0,1,.532-.3,1.337,1.337,0,0,1,.65.121.992.992,0,0,0,.8.086l.033-.01a2.2,2.2,0,0,0,.385-.222l-.159.47.635.056a1.937,1.937,0,0,1-.68.376,1.6,1.6,0,0,1-1.195-.2c-.1-.047-.188-.09-.276-.124a1.291,1.291,0,0,0-1.023.053,1.761,1.761,0,0,1,.3-.3m-.377.483a1.111,1.111,0,0,1,.663-.2,1.2,1.2,0,0,0,.483.681,1.449,1.449,0,0,1-.953.31.993.993,0,0,1-.193-.789m-3.544.287h0a5.779,5.779,0,0,1,1.707.272c1.89.577,2.731.272,3.009.045a2.552,2.552,0,0,1-.757,1.583c-.452.3-1.154.1-2.127-.177-.219-.061-.451-.126-.7-.19a6.564,6.564,0,0,0-3.908.33c-.085-.038-.171-.078-.259-.121l-.051-.033c-.071-.042-.143-.082-.216-.123l-.176-.1-.013-.008a4.81,4.81,0,0,1,3.487-1.48m-2.178.192c.01.019.021.037.032.056a.177.177,0,0,1,.03.08c0,.064-.076.085-.126.065a.865.865,0,0,1-.239-.169c-.083-.078-.292-.364-.114-.449.1-.047.192.06.243.129a2.787,2.787,0,0,1,.174.288m.018-5.743a1.266,1.266,0,0,0-.013-1.01l-.015-.053c-.229-.768-.357-1.379.228-1.686a2.568,2.568,0,0,1,1.281-.2,7.926,7.926,0,0,1,4,1.444,42.59,42.59,0,0,1,4.371,3.344c.206.179.421.359.628.533A15.621,15.621,0,0,1,30.112,8.6a1.376,1.376,0,0,1,.316.456,2.263,2.263,0,0,1-.362-.215c-.09-.061-.183-.124-.274-.174a1.965,1.965,0,0,1-.427-.319.172.172,0,0,0-.251.23c.033.049.051.075.063.1a.814.814,0,0,1-.107-.066L29.061,8.6a3.165,3.165,0,0,1-.311-.24c-.084-.07-.171-.141-.254-.2l-.529-.375.314.566a.8.8,0,0,1,.057.127l0,0a2.86,2.86,0,0,0-.547-.3l-.072-.035a.191.191,0,0,0-.194.017.184.184,0,0,0-.077.141,2.969,2.969,0,0,1-.39-.277l-.1-.083-.13-.1-.086.141a.286.286,0,0,0-.024.042l0,.005a1,1,0,0,1-.341-.221c-.054-.046-.108-.093-.172-.139A.185.185,0,0,0,26,7.653a.188.188,0,0,0-.1.164V7.83a.9.9,0,0,1-.009.143l-.013-.006a2.683,2.683,0,0,1-.594-.358c-.106-.076-.216-.155-.331-.226L24.825,7.3l-.078.126a.471.471,0,0,0-.027.056,3.242,3.242,0,0,1-.693-.412l-.052-.037A.2.2,0,0,0,23.745,7a.164.164,0,0,0-.075.151,2.419,2.419,0,0,1-.424-.259c-.036-.027-.067-.047-.077-.053a.234.234,0,0,0-.243-.032l-.012.005a.289.289,0,0,1-.063-.024,2.685,2.685,0,0,1-.359-.209.253.253,0,0,1-.036-.029.382.382,0,0,0-.3-.132.206.206,0,0,0-.138.1.192.192,0,0,0-.182.01.212.212,0,0,0-.08.2.705.705,0,0,1-.076.332.23.23,0,0,1-.032.052.141.141,0,0,1-.063-.035l-.011-.009A.21.21,0,0,0,21.394,7a.194.194,0,0,0-.132.092.33.33,0,0,1-.047.05.139.139,0,0,1-.051-.048l-.017-.023a.581.581,0,0,0-.242-.211.14.14,0,0,1-.021-.031L20.867,6.8a.18.18,0,0,0-.313.024l-.006.016a.23.23,0,0,0-.143-.076.207.207,0,0,0-.127.032.363.363,0,0,0-.3-.032.2.2,0,0,0-.126.014.22.22,0,0,0-.114.149.4.4,0,0,1-.042.11.379.379,0,0,0-.188.218l-.007.015a.468.468,0,0,1-.04.075.181.181,0,0,0-.277.075.585.585,0,0,1-.23.231v0a.227.227,0,0,1-.014-.065.9.9,0,0,0-.033-.137l-.139-.376-.152.416c-.009.024-.017.043-.027.071a.319.319,0,0,1-.257.206c-.016,0-.051,0-.075-.1a.181.181,0,0,1,0-.023.322.322,0,0,0-.068-.175l-.122.1a1.578,1.578,0,0,0-.18-.407.5.5,0,0,1,.077-.391c.089-.173-.142-.582-.142-.582A1.043,1.043,0,0,0,17.8,5.01a.6.6,0,0,0,.258-.223m-.614.125a.21.21,0,0,0,.145.069l.012.014a1.236,1.236,0,0,1,.246.507.651.651,0,0,1,.014.322.477.477,0,0,1-.124.217c-.039.038-.073.081-.114.117-.006.005-.019.011-.03.02a1.661,1.661,0,0,1-.519.145s-.189.133.569-.023a1.073,1.073,0,0,1,.115.153.218.218,0,0,1,.049.193.754.754,0,0,1-.068.2.529.529,0,0,0-.038.211c.011.178.18.281.223.445a.3.3,0,0,1-.054.257c-.022.026-.087.057-.1.086s.021.074.024.1a.5.5,0,0,1-.012.185.179.179,0,0,1-.115.13c.013,0,.018.019.021.033a.607.607,0,0,1,0,.244.316.316,0,0,1-.164.22c.02,0,.037.014.051.03a2.762,2.762,0,0,1,.232.331.913.913,0,0,1,.095.442,1.348,1.348,0,0,1-.065.45.034.034,0,0,1-.013.02.036.036,0,0,1-.029,0,.559.559,0,0,0-.147-.012c-.164.02-.181.184-.182.32l-.234-.258a.763.763,0,0,1-.573.519.725.725,0,0,0,.67-.332c.018.032.037.064.056.095a1.221,1.221,0,0,0,.2.238,1.25,1.25,0,0,0,.247.2c.007,0,.016.006.025.01a4.867,4.867,0,0,0-1.235.952l-.067-.042c.006-.054.011-.108.012-.164h0a1.489,1.489,0,0,0-.03-.3.977.977,0,0,0,.1.089l.066.045.021-.077a.931.931,0,0,0-.06-.543h0a1.2,1.2,0,0,0-.329-.443,1.264,1.264,0,0,0,.192-.554v0a1.7,1.7,0,0,0,0-.247.936.936,0,0,0,.423.319l.074.026V9.8a.952.952,0,0,0-.192-.528h0a1.1,1.1,0,0,0-.385-.321,1.289,1.289,0,0,0,.114-.573h0a1.432,1.432,0,0,0-.019-.185.891.891,0,0,0,.271.212l.07.034.01-.076a.959.959,0,0,0-.127-.549h0a1.118,1.118,0,0,0-.369-.383,1.422,1.422,0,0,0-.038-.433h0c-.011-.044-.028-.086-.043-.129a.859.859,0,0,0,.4.129l.075,0-.019-.072a.919.919,0,0,0-.318-.461,1.057,1.057,0,0,0-.452-.2,1.3,1.3,0,0,0-.16-.522,1.382,1.382,0,0,0-.5-.507l-.027-.015a1.252,1.252,0,0,0-.184-.579,1.39,1.39,0,0,0-.214-.26l.065.022a1.219,1.219,0,0,1,.272.23.252.252,0,0,0,.1.045l.011.226s.131-.215.27-.231A.632.632,0,0,1,16,5.139c.02.166.024.381.06.543a.167.167,0,0,0,.037.087.154.154,0,0,0,.09.037.9.9,0,0,0,.6-.093c.085-.051.184-.126.189-.233a.934.934,0,0,0-.078-.392,1.482,1.482,0,0,0-.11-.231.817.817,0,0,0-.073-.108c-.032-.04-.069-.068-.1-.1A.15.15,0,0,1,16.6,4.62a1.014,1.014,0,0,1,.845.292m-1.01,4.149a1.025,1.025,0,0,1,.315.275.921.921,0,0,1,.164.377.89.89,0,0,1-.408-.445,1.4,1.4,0,0,1-.071-.207m-.338-5,0,.035a.7.7,0,0,1-.011.116.237.237,0,0,0,.1.24.243.243,0,0,0,.05.036l.021.014a1.424,1.424,0,0,1,.421.457,1.558,1.558,0,0,1,.189.423.288.288,0,0,1-.18.285.637.637,0,0,1-.459.053.1.1,0,0,1-.044-.021.11.11,0,0,1-.02-.083,1.438,1.438,0,0,0,0-.2l-.008-.089c0-.014,0-.028,0-.042V5.276a.916.916,0,0,0-.423-.735.218.218,0,0,0-.208-.045.329.329,0,0,1-.064.011.143.143,0,0,0-.029,0,.117.117,0,0,1-.106-.035,1.364,1.364,0,0,0-.626-.334l-.008-.006a.621.621,0,0,0-.015-.323c.029-.021.065-.03.1-.051a.682.682,0,0,0,.1-.079.313.313,0,0,1,.183-.1.28.28,0,0,1,.094.015.469.469,0,0,0,.075.012.367.367,0,0,0,.186-.013.236.236,0,0,1,.116-.032.32.32,0,0,1,.083.051.415.415,0,0,0,.091.034.193.193,0,0,0,.134-.017l.034-.014a.447.447,0,0,1,.247.442M15.264,3.3a.371.371,0,0,0,.253,0l.022-.009a.6.6,0,0,1,.2-.057.216.216,0,0,1,.15.046.2.2,0,0,1,.052.078.132.132,0,0,1,0,.091.2.2,0,0,1-.034.038.172.172,0,0,1-.2.024c-.05-.026-.089-.078-.145-.091s-.092.03-.141.053c-.081.036-.174-.007-.262-.018a.459.459,0,0,0-.4.2.19.19,0,0,1-.164.08.184.184,0,0,1-.068-.045.189.189,0,0,0-.1-.042.7.7,0,0,1-.2-.02c-.1-.042-.089-.158-.03-.234.076-.1.271-.03.358.027a.117.117,0,0,0,.057.025.082.082,0,0,0,.064-.024l.038-.035c.258-.384.421-.148.545-.1M13.353,7.242a.221.221,0,0,0-.1.091.586.586,0,0,1-.03-.058l-.008-.019a.373.373,0,0,0-.186-.216.407.407,0,0,1-.045-.112.22.22,0,0,0-.113-.149.189.189,0,0,0-.126-.013.361.361,0,0,0-.3.031.209.209,0,0,0-.126-.032.223.223,0,0,0-.143.076l-.006-.016a.18.18,0,0,0-.313-.024l-.017.028a.141.141,0,0,1-.021.031.581.581,0,0,0-.242.211l-.017.023a.222.222,0,0,1-.047.048.165.165,0,0,1-.055-.054A.2.2,0,0,0,11.31,7a.189.189,0,0,0-.149.059.175.175,0,0,1-.077.054.554.554,0,0,1-.117-.384.212.212,0,0,0-.08-.2.192.192,0,0,0-.182-.01.207.207,0,0,0-.138-.1.385.385,0,0,0-.3.132l-.031.027-.075.047a1.459,1.459,0,0,1-.357.187l-.007,0a.233.233,0,0,0-.237.026l-.09.064a3.958,3.958,0,0,1-.333.214.07.07,0,0,1-.1-.036A.145.145,0,0,0,8.966,7a.2.2,0,0,0-.227.043l-.047.033a3.207,3.207,0,0,1-.7.412.269.269,0,0,0-.025-.056L7.893,7.3l-.124.078c-.115.071-.225.15-.331.226a2.743,2.743,0,0,1-.6.362l0,0a.912.912,0,0,1-.009-.144V7.817a.186.186,0,0,0-.3-.147c-.064.047-.118.094-.172.14a.958.958,0,0,1-.341.219A.133.133,0,0,1,6,8.005c-.012-.03-.024-.063-.036-.1a.069.069,0,0,0-.107-.029c-.027.02-.054.042-.079.059-.061.044-.121.091-.18.138a2.679,2.679,0,0,1-.324.226.187.187,0,0,0-.271-.156l-.072.033a2.873,2.873,0,0,0-.546.3l-.006,0a.819.819,0,0,1,.055-.121l.005-.012c.018-.071.049-.138.061-.211.016-.1-.092-.1-.16-.056l-.125.079-.005,0c-.025.019-.063.051-.127.1a3.587,3.587,0,0,1-.543.41.792.792,0,0,1,.065-.1.172.172,0,0,0-.26-.221,3.216,3.216,0,0,1-.589.419c-.1.061-.207.125-.313.2a1.388,1.388,0,0,1-.157.089A1.4,1.4,0,0,1,2.611,8.6,15.45,15.45,0,0,1,4.174,7.16c.208-.174.422-.354.628-.532A42.348,42.348,0,0,1,9.173,3.283a7.926,7.926,0,0,1,4.006-1.444,1.985,1.985,0,0,1,1.527.4,1.08,1.08,0,0,1,.16.876c-.157-.021-.3.207-.3.207a.453.453,0,0,0-.27-.061.251.251,0,0,0-.195.328l0,.016c.006.021.013.041.019.063a.069.069,0,0,1-.02.023l-.023.015a.335.335,0,0,0-.034.026l-.063.05a1.038,1.038,0,0,0-.114.1.6.6,0,0,0-.144.619c0,.013.008.024.011.039.078.213.05-.137.246-.23a.794.794,0,0,1,.423-.082,1.433,1.433,0,0,0-.19.185,1.313,1.313,0,0,0-.312.842l-.035.008h0a.754.754,0,0,0-.542.557l-.015.07.072,0a.533.533,0,0,0,.29-.116,1.341,1.341,0,0,0,.038.848,1.142,1.142,0,0,0-.356.623m.332-.138c-.008.035-.017.066-.027.1a.917.917,0,0,1-.183.307.128.128,0,0,1-.029.013,1,1,0,0,1,.264-.748,2.157,2.157,0,0,0-.027.3c0,.011,0,.023,0,.034m-.012-1.476a.607.607,0,0,1-.216.133.658.658,0,0,1,.378-.373l0,.005a.791.791,0,0,0-.069.126.783.783,0,0,1-.089.109m.11.156a2.161,2.161,0,0,1,.08-.22.4.4,0,0,0,.031-.052l.011.031a1.292,1.292,0,0,0,.038.131,1.4,1.4,0,0,1,.039.413,1.231,1.231,0,0,1-.126.462l-.035.046-.008-.014a1.247,1.247,0,0,1-.03-.8M13.8,7.111a1.256,1.256,0,0,0,.031-.327l0-.006a.373.373,0,0,1,.033.048c.018.046.037.09.055.131a.984.984,0,0,0,.1.166,1.551,1.551,0,0,1,.05.164,1.257,1.257,0,0,1,.005.492L14,7.765a1.219,1.219,0,0,1-.207-.654m.109.854a1.488,1.488,0,0,0-.032.284.968.968,0,0,1-.041.14.861.861,0,0,1-.221.33,1.006,1.006,0,0,1,.294-.765v.011m.227,1.695a.893.893,0,0,1-.189.349,1,1,0,0,1,.221-.789,1.154,1.154,0,0,1-.032.44m.116-.58-.006-.007-.03-.037-.01-.015a1.228,1.228,0,0,1-.221-.71c0-.013,0-.029,0-.043a1.338,1.338,0,0,0,.031-.256,1.4,1.4,0,0,1,.241.514,1.221,1.221,0,0,1-.008.554m.135.982a1.383,1.383,0,0,1-.08-.747,1.383,1.383,0,0,1,.265.51,1.222,1.222,0,0,1,.036.4l0,.026-.011.077s0,0,0,0c0,.018,0,.034-.008.052a1.075,1.075,0,0,1-.2-.317m.109.684a1.908,1.908,0,0,1,.1-.185c.006.053.014.105.025.157a1.13,1.13,0,0,1-.013.273.91.91,0,0,1-.158.376.973.973,0,0,1,.05-.621M7.86,9.818c-.088.034-.179.077-.276.124a1.6,1.6,0,0,1-1.2.2,1.947,1.947,0,0,1-.68-.376l.635-.056-.159-.47a2.2,2.2,0,0,0,.385.222l.033.01a.992.992,0,0,0,.8-.086,1.337,1.337,0,0,1,.65-.121,1.01,1.01,0,0,1,.532.3,1.761,1.761,0,0,1,.3.3A1.291,1.291,0,0,0,7.86,9.818m.442.031a1.116,1.116,0,0,1,.664.2,1,1,0,0,1-.194.789,1.449,1.449,0,0,1-.953-.31A1.191,1.191,0,0,0,8.3,9.849m.248,2.389a2.562,2.562,0,0,1-.757-1.583c.278.227,1.119.532,3.009-.045a5.779,5.779,0,0,1,1.707-.272,4.8,4.8,0,0,1,1.878.376,1.054,1.054,0,0,0-.019.782l.03.075.059-.055a.956.956,0,0,0,.251-.49,1.2,1.2,0,0,0,.414.515,1.178,1.178,0,0,0-.252.441c-.005.018-.007.037-.012.055a6.9,6.9,0,0,0-3.485-.166c-.227.059-.44.119-.645.176l-.051.014c-.973.275-1.675.472-2.127.177m.757,1.756a23.549,23.549,0,0,0,.061,2.761l-.744-.488a26.215,26.215,0,0,1-.267-2.9Zm.1,3.136a17.89,17.89,0,0,0,1.92,6.615,14.3,14.3,0,0,0,1.462,2.23,5.57,5.57,0,0,1-.469.508q-.461-.464-.882-.969a13.051,13.051,0,0,1-2.409-4.365,17.915,17.915,0,0,1-.794-4.785ZM5.07,11.221l2.006,1.313c.02,1.046.078,1.977.173,2.833L4.964,13.873c0-.845.038-1.736.106-2.652M6.878,27.037a9,9,0,0,1-1.784-3.094A21.134,21.134,0,0,1,4.27,13.771l2.4,1.571c.005.29.011.581.021.87a18.069,18.069,0,0,0,.8,4.937,13.177,13.177,0,0,0,1,2.3A13.4,13.4,0,0,0,9.9,25.514a15.265,15.265,0,0,0,1.587,1.639,3.927,3.927,0,0,1-4.371.138c-.118-.117-.2-.207-.24-.254m.564.55A4.1,4.1,0,0,0,9.206,28a5.042,5.042,0,0,0,3.65-1.94,11.941,11.941,0,0,0,1.689,1.709c-3.4,2.3-5.991.761-7.1-.186m5.887,3.473A13.891,13.891,0,0,0,14.837,28c.232.174.465.335.7.479l-.373,2.9a3.942,3.942,0,0,0-1.835-.318m1.2.22a2.5,2.5,0,0,1,.629.217.082.082,0,0,1-.021.041c-.031.039-.128.109-.41.137a.608.608,0,0,0-.323.116Zm.925,1.536a.5.5,0,0,0-.077.085l-.017-.488a.352.352,0,0,1,.115.055.2.2,0,0,1,.085.124h.006a.27.27,0,0,1-.112.224m.12-.41a.648.648,0,0,0-.488-.125,3.085,3.085,0,0,1-.515.037.283.283,0,0,1-.182-.069.23.23,0,0,1,0-.3.468.468,0,0,1,.286-.15c.107-.023.218-.029.323-.061a.387.387,0,0,0,.249-.2.524.524,0,0,0,.029-.136l.155-1.216c.027-.2.052-.407.078-.609l.077-.609c.014-.1.027-.2.04-.305,0-.025.006-.05.01-.076a.139.139,0,0,1,0-.035c.005-.014.012,0,.024,0l.133.076.066.038q-.144,1.866-.291,3.734m1.777.5a.557.557,0,0,0-.078-.085.287.287,0,0,1-.11-.189l0-.033a.208.208,0,0,1,.085-.126.352.352,0,0,1,.115-.055Zm1.01-.69a.193.193,0,0,1-.022.028.345.345,0,0,1-.237.083c-.163,0-.324-.032-.486-.041a.666.666,0,0,0-.462.116q-.141-1.782-.28-3.563a.3.3,0,0,1,.013-.148.306.306,0,0,1,.212-.136q.162,1.347.327,2.693a.638.638,0,0,0,.159.421c.139.124.343.1.512.147s.383.212.264.4m-.038-.42A.6.6,0,0,0,18,31.675c-.283-.028-.378-.1-.411-.137a.084.084,0,0,1-.019-.04,2.467,2.467,0,0,1,.627-.218Zm1.071-.731a3.935,3.935,0,0,0-1.835.318l-.372-2.9c.226-.14.46-.3.7-.482A13.935,13.935,0,0,0,19.39,31.06m-3.03-2.629a8.606,8.606,0,0,1-2.037-1.451.678.678,0,0,0,.026-.224c0-.11,0-.214.071-.261.013-.008.026-.013.04-.02a.288.288,0,0,0,.079-.047.3.3,0,0,0,.056-.078.167.167,0,0,1,.026-.045.264.264,0,0,1,.157-.047.347.347,0,0,0,.233-.086.208.208,0,0,0,.055-.229.386.386,0,0,0-.027-.043l-.014-.022a.121.121,0,0,1,.026-.115.382.382,0,0,1,.288-.122,1.026,1.026,0,0,1,.118.012.411.411,0,0,0,.321-.04.472.472,0,0,0,.088-.1.2.2,0,0,1,.088-.084.283.283,0,0,1,.08-.006.2.2,0,0,0,.181-.059l.006-.01c.015-.034.025-.04.067-.035l.647.04a.242.242,0,0,1,.108.023.2.2,0,0,1,.052.055.378.378,0,0,0,.074.076.291.291,0,0,0,.278,0,.718.718,0,0,0,.079-.038.627.627,0,0,1,.131-.055.272.272,0,0,1,.262.1.1.1,0,0,1,.007.119.118.118,0,0,1-.025.019.157.157,0,0,0-.073.085.15.15,0,0,0,.112.167l.026.009a.158.158,0,0,1,.061.025c.026.069-.009.132-.074.23a.539.539,0,0,0-.095.2V26.4c.011.081.095.109.136.123s.174.068.19.162a.249.249,0,0,1,0,.047.273.273,0,0,0,.016.1.4.4,0,0,0,.037.059.11.11,0,0,1,.019.029.326.326,0,0,0,.054.144,8.517,8.517,0,0,1-1.954,1.363m1.814-.665a11.944,11.944,0,0,0,1.692-1.707A5.046,5.046,0,0,0,23.521,28a4.08,4.08,0,0,0,1.757-.414c-1.126.953-3.719,2.469-7.1.176m9.451-3.823a8.973,8.973,0,0,1-1.764,3.08c-.043.05-.128.146-.254.27a3.927,3.927,0,0,1-4.353-.13,15.422,15.422,0,0,0,1.579-1.633,13.222,13.222,0,0,0,1.412-2.062,13.037,13.037,0,0,0,1-2.3,18.022,18.022,0,0,0,.8-4.936c.011-.3.018-.6.023-.9l2.385-1.561a21.118,21.118,0,0,1-.825,10.172M29.54,13.5l-.707-.154.143-.709,1.408-.3Z" fill="#fff"/>
        <path id="Trazado_34" data-name="Trazado 34" d="M20.59,11.157l.234.017a.278.278,0,0,1,.089.023.1.1,0,0,1,.045.1c0,.039-.006.077-.008.117s0,.047,0,.056l.005.024.12.014,0-.015a.057.057,0,0,1-.025-.047.209.209,0,0,1,0-.059c0-.032.007-.063.009-.1a.156.156,0,0,0-.013-.092.148.148,0,0,0-.061-.049.205.205,0,0,0,.087-.056.164.164,0,0,0,.042-.1.161.161,0,0,0-.088-.178.382.382,0,0,0-.143-.037c-.124-.011-.244-.02-.365-.028-.018.233-.033.467-.048.7.033,0,.066.005.1.007.007-.1.015-.2.021-.3m.027-.318.258.02a.235.235,0,0,1,.085.023.1.1,0,0,1,.048.108.114.114,0,0,1-.054.092.217.217,0,0,1-.118.015c-.08-.008-.159-.014-.238-.019.006-.08.013-.16.019-.239" fill="#fff"/>
        <path id="Trazado_35" data-name="Trazado 35" d="M21.776,11.457a.455.455,0,0,0,.087-.19.332.332,0,0,0-.025-.245.3.3,0,0,0-.225-.146q-.158-.027-.315-.048c-.035.231-.071.462-.1.692.1.014.195.029.291.045a.279.279,0,0,0,.291-.108m-.47,0c.027-.178.056-.353.085-.531l.184.029a.21.21,0,0,1,.168.1.3.3,0,0,1,.014.208.325.325,0,0,1-.022.072.331.331,0,0,1-.063.1.2.2,0,0,1-.108.052.252.252,0,0,1-.084-.005l-.174-.027" fill="#fff"/>
        <path id="Trazado_36" data-name="Trazado 36" d="M22.462,11.7c-.142-.041-.285-.077-.43-.111.02-.077.039-.153.056-.231.135.032.27.066.4.1.008-.027.015-.052.024-.077-.135-.039-.268-.073-.405-.105.016-.068.034-.137.051-.207.152.036.3.074.448.116.008-.027.017-.055.027-.081-.184-.052-.368-.1-.554-.14-.055.227-.109.455-.161.682.174.038.348.083.518.131a.81.81,0,0,0,.024-.08" fill="#fff"/>
        <path id="Trazado_37" data-name="Trazado 37" d="M22.651,11.844q.087-.27.177-.54.1.328.174.657l.1.038c.083-.219.169-.437.255-.654l-.094-.035-.2.531c-.05-.218-.107-.438-.17-.656l-.12-.037c-.072.222-.143.446-.212.668l.089.028" fill="#fff"/>
        <path id="Trazado_38" data-name="Trazado 38" d="M18.924,11.494c.033,0,.067-.008.1-.01-.009-.094-.017-.188-.026-.282.082-.149.171-.3.264-.442l-.127.008c-.069.12-.135.238-.2.358-.085-.1-.173-.206-.262-.308l-.126.017q.179.186.343.378c.011.094.021.187.031.281" fill="#fff"/>
        <path id="Trazado_39" data-name="Trazado 39" d="M19.976,11.455a.345.345,0,0,0,.284-.115.411.411,0,0,0,.1-.257.354.354,0,0,0-.064-.243.369.369,0,0,0-.3-.125.356.356,0,0,0-.3.134.391.391,0,0,0-.074.247.4.4,0,0,0,.1.257.354.354,0,0,0,.27.1m-.184-.579a.279.279,0,0,1,.2-.076.247.247,0,0,1,.194.077.263.263,0,0,1,.064.2.379.379,0,0,1-.068.207.214.214,0,0,1-.194.085.248.248,0,0,1-.2-.077.321.321,0,0,1-.066-.2.3.3,0,0,1,.074-.221" fill="#fff"/>
        <path id="Trazado_40" data-name="Trazado 40" d="M9.065,12.015c-.074-.2-.149-.4-.226-.6l-.1.035q.135.338.263.676c.149-.053.3-.1.454-.15L9.427,11.9c-.122.037-.243.076-.362.118" fill="#fff"/>
        <path id="Trazado_41" data-name="Trazado 41" d="M9.367,11.27q.114.345.221.69l.1-.028q-.1-.346-.214-.692l-.105.03" fill="#fff"/>
        <path id="Trazado_42" data-name="Trazado 42" d="M10.283,11.415a.265.265,0,0,0-.1-.029.169.169,0,0,0,.051-.054.145.145,0,0,0,.017-.118.173.173,0,0,0-.059-.094.243.243,0,0,0-.216-.03c-.112.025-.225.053-.336.082.071.232.138.464.2.7.1-.028.2-.052.307-.077a.252.252,0,0,0,.193-.128.188.188,0,0,0,.02-.133.171.171,0,0,0-.081-.116m-.453.024c-.02-.071-.042-.143-.062-.215.062-.016.125-.031.188-.044a.36.36,0,0,1,.106-.013.1.1,0,0,1,.087.08.1.1,0,0,1-.033.108.264.264,0,0,1-.1.04l-.187.044m.423.192a.155.155,0,0,1-.119.079c-.073.019-.145.034-.216.053-.022-.084-.045-.164-.068-.246l.2-.05a.314.314,0,0,1,.109-.009.108.108,0,0,1,.1.09.122.122,0,0,1-.006.083" fill="#fff"/>
        <path id="Trazado_43" data-name="Trazado 43" d="M11.069,11.495c-.155.02-.308.043-.46.07-.015-.08-.032-.16-.048-.24.142-.026.284-.049.428-.068,0-.026-.009-.054-.013-.082-.145.019-.288.042-.432.067-.015-.072-.029-.143-.044-.216.157-.028.316-.052.476-.072-.005-.029-.009-.059-.014-.088-.2.025-.392.056-.587.093.054.236.1.471.151.709.185-.034.369-.064.556-.088,0-.028-.009-.057-.013-.085" fill="#fff"/>
        <path id="Trazado_44" data-name="Trazado 44" d="M11.375,11.529c-.012-.1-.025-.2-.038-.307.08-.009.162-.015.243-.023a.35.35,0,0,1,.1.005.107.107,0,0,1,.065.092c.006.04.011.08.016.12a.468.468,0,0,0,.01.056l.011.024c.041,0,.085-.006.128-.007v-.017a.061.061,0,0,1-.039-.042.344.344,0,0,1-.01-.061c0-.031-.009-.064-.012-.1a.137.137,0,0,0-.032-.089.176.176,0,0,0-.074-.042.194.194,0,0,0,.076-.071.161.161,0,0,0,.021-.108.176.176,0,0,0-.13-.163.4.4,0,0,0-.157-.014c-.128.01-.253.024-.378.038.036.238.07.478.1.716l.1-.011m.186-.659a.208.208,0,0,1,.091.008.111.111,0,0,1,.075.1.1.1,0,0,1-.035.1.214.214,0,0,1-.117.037c-.084.006-.166.014-.249.023-.01-.083-.022-.164-.033-.247.089-.009.179-.018.268-.024" fill="#fff"/>
        <path id="Trazado_45" data-name="Trazado 45" d="M12.144,10.836c.011.212.022.424.029.638l.107,0q-.008-.318-.023-.636c.093,0,.186,0,.278,0,0-.028,0-.057,0-.087-.225,0-.45,0-.672.012,0,.028.005.057.007.085.092,0,.183-.008.276-.009" fill="#fff"/>
        <path id="Trazado_46" data-name="Trazado 46" d="M12.588,11.468c.028-.072.058-.144.087-.215l.315.014c.025.075.048.149.071.222.038,0,.078.007.117.008-.08-.248-.17-.5-.268-.742l-.127-.005c-.106.236-.206.475-.3.716l.108,0m.252-.609c.042.109.08.217.117.327-.083-.005-.168-.009-.252-.012.045-.1.089-.211.135-.315" fill="#fff"/>
        <path id="Trazado_47" data-name="Trazado 47" d="M13.9,11.418a.443.443,0,0,0,.073-.2.333.333,0,0,0-.312-.4c-.114-.013-.229-.025-.342-.036q-.016.363-.043.723c.105.011.211.022.318.035a.3.3,0,0,0,.306-.123m-.511.016c.015-.186.029-.37.039-.557.068.008.135.014.2.023a.249.249,0,0,1,.191.1.311.311,0,0,1,.039.218.418.418,0,0,1-.016.073.3.3,0,0,1-.059.106.193.193,0,0,1-.113.06.436.436,0,0,1-.089,0c-.065-.008-.128-.016-.193-.022" fill="#fff"/>
        <path id="Trazado_48" data-name="Trazado 48" d="M17.163,24.081h-.012v-.065h-.1v-.18h.2v-.468h-.2V23.23A.093.093,0,0,0,17,23.142a.106.106,0,0,0-.1,0,.1.1,0,0,0-.047.087v.141h-.334v-.14a.1.1,0,0,0-.049-.086.1.1,0,0,0-.1,0,.1.1,0,0,0-.044.084v.141h-.332v-.14a.1.1,0,0,0-.049-.086.1.1,0,0,0-.1,0,.094.094,0,0,0-.044.084v.141h-.2v.469h.2v.18h-.134v.065h-.012l-.133-.167h-.5l.227.333.28.182.878.006h0l.878-.006.279-.182.228-.333h-.5Zm-.364-.6h.336v.248H16.8Zm.056.359v.18h-.129v.074l-.122,0v-.076h-.083v-.18Zm-.6-.359h.035a.2.2,0,0,0,.132-.039.2.2,0,0,0,.134.039h.035v.248h-.336Zm.071.359v.18h-.113v.076l-.122,0v-.074h-.1v-.18Zm-.614-.111v-.248h.334v.248h-.334Zm1.873.3-.1.151-.226.143-.848.006-.848-.006-.227-.143-.1-.151h.238l.132.165.177,0v-.067h.2V24.2l.343.007v-.078h.169V24.2l.345-.007v-.071h.2v.067l.178,0,.13-.165Z" fill="#fff"/>
        <path id="Trazado_49" data-name="Trazado 49" d="M17.163,27.208h-.012v-.065h-.1v-.18h.2V26.5h-.2v-.137A.093.093,0,0,0,17,26.269a.106.106,0,0,0-.1,0,.1.1,0,0,0-.047.087v.141h-.334v-.14a.1.1,0,0,0-.049-.086.1.1,0,0,0-.1,0,.1.1,0,0,0-.044.084v.141h-.332v-.14a.1.1,0,0,0-.049-.086.1.1,0,0,0-.1,0,.094.094,0,0,0-.044.084v.141h-.2v.469h.2v.18h-.134v.065h-.012l-.133-.167h-.5l.227.333.28.182.878.006h0l.878-.006.279-.182.228-.333h-.5Zm-.364-.6h.336v.248H16.8Zm.056.359v.18h-.129v.074l-.122,0v-.076h-.083v-.18Zm-.6-.359h.035a.2.2,0,0,0,.132-.039.2.2,0,0,0,.134.039h.035v.248h-.336Zm.071.359v.18h-.113v.076l-.122,0v-.074h-.1v-.18Zm-.614-.111V26.6h.334v.248h-.334Zm1.873.3-.1.151-.226.143-.848.006-.848-.006-.227-.143-.1-.151h.238l.132.165.177,0v-.067h.2v.071l.343.007v-.078h.169v.078l.345-.007v-.071h.2v.067l.178,0,.13-.165Z" fill="#fff"/>
        <path id="Trazado_50" data-name="Trazado 50" d="M14.593,10.326h0c0-.005,0,0,0,0" fill="#fff"/>
        <rect id="Rectángulo_4" data-name="Rectángulo 4" width="0.533" height="54.788" transform="translate(55.441 0)" fill="#fff"/>
      </g>
    </g>
  </g>
</svg>
